<svg xmlns="http://www.w3.org/2000/svg" viewBox="0 0 232.68 169.42">
  <title>Asset 1</title>
  <g id="Layer_2" data-name="Layer 2">
    <g id="Layer_1-2" data-name="Layer 1">
      <path d="M117.61,136.68" style="fill: none;stroke: #000;stroke-miterlimit: 10"/>
      <path d="M66.76,82" style="fill: #1d3963"/>
      <path d="M180.7,88.85a10.94,10.94,0,0,0-1-3.71c-.07-.13-.15-.3-.27-.5a7.4,7.4,0,0,0-4.13-3.26c.1-1.39.12-2.6.1-3.59,0-1.15-.1-2.12-.16-2.75,0-.38-.07-.7-.1-.94l-.81-.31-47.24-18L87.35,70.94A41.32,41.32,0,0,0,72.5,72a14.88,14.88,0,0,0-8.43,4.8,13.32,13.32,0,0,0-1.75,2.69,24.58,24.58,0,0,0-1,9.2,10.63,10.63,0,0,0-4.43,6,9.25,9.25,0,0,0-.2,3.41,8.35,8.35,0,0,0,5.89,7q.14,5.16.27,10.33a17.49,17.49,0,0,0,5.55,5,19.7,19.7,0,0,0,6.68,2.13,37.45,37.45,0,0,0,10.87.35,17.93,17.93,0,0,0,4.14,6.58,19.75,19.75,0,0,0,7.15,4.35,35.47,35.47,0,0,0,17.78,1.6,39.3,39.3,0,0,0,12.84-4.5,16.31,16.31,0,0,0,4.11-3.2,15.41,15.41,0,0,0,2.49-3.67l40.44-15.33.39-10.84a9.27,9.27,0,0,0,3.45-2.48,8.1,8.1,0,0,0,2.11-4.86A8.85,8.85,0,0,0,180.7,88.85ZM67.39,81.21c1.72-4.72,11.8-5.81,12.48-5.88l8.4.51,39.37-14.72,40.57,15.65L127.42,92.21a5.82,5.82,0,0,1-.26,2c-1.44,4.5-8.25,6.2-11.28,6.48a57.85,57.85,0,0,1-13.08-.24,23.58,23.58,0,0,1-10.2-3.48c-2.08-1.37-2.88-2.48-3.12-3.72a5.56,5.56,0,0,1,1.2-4.2,51.47,51.47,0,0,1-9.06,1c-6.85.13-9.62-1.21-10.72-1.81-2.9-1.6-3.47-3.26-3.62-3.74A5.36,5.36,0,0,1,67.39,81.21ZM174.93,92.37a8.82,8.82,0,0,1-1.66,2,11.22,11.22,0,0,1-5.43,2.38,12.31,12.31,0,0,1-2.65.33c-.84,0-.9-.09-1.82-.12a9.15,9.15,0,0,0-4,.47,12.7,12.7,0,0,0-2.09,1.31c-1.93,1.34-1.68,1.45-2.44,1.82-2,1-3.44.07-4.32,1.16-.37.46-.1.61-.61,1.73a5,5,0,0,1-1.68,2.28,3.52,3.52,0,0,1-3.12.48c-.15-.07-1.17-.51-1.34-1.19a1.85,1.85,0,0,0-.28-.64c-.11-.16-.22-.31-.37-.35s-.57.27-.94.55a3.66,3.66,0,0,1-1.5.56c-1.2.32-2.07,1.41-3.77,2.55a13.25,13.25,0,0,1-5.47,2.49,3.85,3.85,0,0,0-1.92.6c-1,.69-1,1.63-1.44,2.52-.94,1.81-3.16,2.42-5.28,3-2.95.81-4,.07-6.24,1.32a13,13,0,0,0-1.92,1.32c-2,1.67-2.08,2.68-3.36,3.12a4,4,0,0,1-3.48-.6c-1.34-1-.82-2.2-2-3.34s-2.19-.57-4.66-1.2c-2.92-.74-2.51-1.7-5.3-2.54-3.36-1-4.87.08-7-1.44-1.06-.77-.85-1.18-1.84-2.19-3.44-3.48-8.29-.41-12-3.7-1.19-1.06-1.34-1.95-3.15-3.17-1.33-.89-1.71-.73-3.58-1.79a13.07,13.07,0,0,1-4-3.14c-1.09-1.34-2-3.16-1.71-3.41s2.58,3.34,7.07,5.39c1.92.88,6.16,2.24,9.54,1.51a24.33,24.33,0,0,1,4.51-.06,1.91,1.91,0,0,1,1.44.48c.55.64.18,1.69.12,2.16-.26,2,3.3,4.79,8.76,6.84a41.9,41.9,0,0,0,17.24,2.3c4-.16,8.82-.4,13.48-2.9a19.44,19.44,0,0,0,5.22-3.78c1.87-1.94,1.79-2.76,3.46-4.26s3.23-2,6.48-3.15c2.79-1,3.39-.87,8.13-2.36l3.36-1.1,9-3c6.18-2.15,9.29-3.26,10.47-4.57s2-2.78,3.21-2.64c1,.11,1.68,1.21,1.92,2C176.45,89.9,175.59,91.3,174.93,92.37Z" style="fill: #1d3963"/>
      <path d="M31.11,141.24q0,9.67,5.64,14.47T56,160.78v8.63q-18.5,0-26.32-7.11t-7.82-21.91v-32Q21.82,89,0,88.6V81q11.57-.19,16.69-4.84t5.12-14V28.93Q21.82.57,56,0V8.54Q42.88,9,37,14T31.11,28.93V57.86q0,12.33-4.17,18.4T13.47,84.33v.76Q22.67,87,26.89,93t4.22,17.69v30.54Z" style="fill: #1d3963"/>
      <path d="M201.57,110.7q0-11.67,4.22-17.69t13.42-7.92v-.76q-9.3-2-13.47-8.06t-4.17-18.4V28.93q0-9.86-5.88-14.89t-19-5.5V0q34.15.57,34.15,28.93v33.2q0,9.39,5.12,14T232.68,81V88.6q-21.82.38-21.82,19.82v32q0,14.8-7.83,21.91t-26.32,7.11v-8.63q13.57-.28,19.21-5.07t5.65-14.47V110.7Z" style="fill: #1d3963"/>
    </g>
  </g>
</svg>
