<?xml version="1.0" encoding="utf-8"?>
<!-- Generator: Adobe Illustrator 21.0.0, SVG Export Plug-In . SVG Version: 6.00 Build 0)  -->
<svg version="1.1" id="Layer_1" xmlns="http://www.w3.org/2000/svg" xmlns:xlink="http://www.w3.org/1999/xlink" x="0px" y="0px"
	 viewBox="0 0 505 505" style="enable-background:new 0 0 505 505;" xml:space="preserve">
<style type="text/css">
	.st0{fill:#FFFFFF;}
	.st1{fill:#FFA500;}
</style>
<path class="st0" d="M136,289c47-83.8,56.5-122.2,54-141c-0.5-3.5-3.3-20.7-1-43c1.3-12.7,3.8-23.3,5-28c3.3-13.6,7.4-24.7,10.8-33
	c34.4,8.4,68.8,16.7,103.2,25.1l82,261.3l-67,126.3L182,469c-18.3-50.7-36.7-101.3-55-152C130,307.7,133,298.3,136,289z"/>
<path class="st1" d="M190,140l50-30l60,25l-70,40 M45,390l50-20l30-30l80,120l-30,30L50,470 M330,360h90l20,50l20,25l-110,60h-20"/>
<path d="M456.7,412c-13.4-5.5-24.4-14.1-23.6-30.6c0.8-16.5-11.8-27.4-11.8-27.4s11-36.1,0.8-66c-10.2-29.9-44-77.7-69.9-113.9
	C326.4,138,348.3,96.4,324.8,43C301.2-10.3,240-7.2,207,15.6c-33,22.7-22.8,79.3-21.2,106c1.6,26.7,0.7,45.7-2.3,52.6
	c-3.1,6.9-24.3,32.2-38.5,53.4c-14.1,21.2-24.3,65.2-34.6,83.2c-10.2,18.1-3.1,34.5-3.1,34.5s-7.1,2.3-12.6,14.2
	c-5.5,11.7-16.5,17.2-36.1,21.1C39,384.5,39,397.1,43.7,411.3c4.7,14.1,0,22-5.5,40s22,23.6,48.7,26.6c26.7,3.2,56.5,20.4,81.7,23.6
	c25.1,3.1,33-17.3,33-17.3s28.3-6.3,58.1-7.1c29.9-0.8,58.1,6.3,58.1,6.3s5.5,12.6,15.7,18c10.2,5.5,32.2,6.3,46.3-8.6
	c14.1-14.9,51.8-33.8,73-45.6C473.9,435.5,470,417.5,456.7,412z M273,65.8c13.5,0,24.3,13.4,24.3,29.8c0,11.7-5.5,21.8-13.4,26.7
	c-2-0.9-4.2-1.8-6.4-2.8c4.8-2.4,8.2-8.5,8.2-15.6c0-9.3-5.7-16.8-12.8-16.8c-7,0-12.8,7.6-12.8,16.8c0,3.4,0.8,6.7,2.2,9.4
	c-4.2-1.7-8-3.2-11.1-4.4c-1.6-4-2.6-8.5-2.6-13.4C248.6,79.2,259.5,65.8,273,65.8z M271.2,128.7c6.7,2.3,14.2,6.7,13.4,11
	c-0.8,4.4-4.3,4.4-13.4,9.9c-9.1,5.5-28.9,17.8-35.2,18.6c-6.4,0.8-9.9-2.8-16.6-7.1c-6.7-4.4-19.4-14.7-16.2-20.2
	c0,0,9.9-7.6,14.2-11.5c4.4-4,15.4-13.4,22.2-12.2C246.3,118.4,264.5,126.3,271.2,128.7z M210.5,70.5c10.6,0,19.2,12.6,19.2,28.2
	c0,2.9-0.3,5.5-0.8,8.1c-2.6,0.9-5.2,2.3-7.8,4.5c-1.3,1.1-2.4,2-3.5,3c1.7-3.1,2.4-7.6,1.6-12.4c-1.4-8.5-7.1-14.7-12.7-13.8
	c-5.6,1-9,8.6-7.6,17.2c1.4,8.6,7.1,14.8,12.7,13.8c0.3-0.1,0.6-0.2,0.9-0.3c-2.7,2.6-5.3,4.9-7.8,6.8c-7.8-3.6-13.5-14.3-13.5-27
	C191.3,83.2,199.9,70.5,210.5,70.5z M189.8,467.2c-2.5,11.3-15.7,19.4-15.7,19.4c-11.9,3.8-45.2-10.7-60.2-17
	c-15-6.2-53.3-8.2-58.3-13.7c-5-5.7,2.5-18.2,4.4-30.1c1.9-12-3.8-19.5-1.9-27.6c1.9-8.1,26.4-8.1,35.7-13.8
	c9.4-5.7,11.3-22,18.8-26.4c7.5-4.4,21.3,11.3,27,20.1c5.6,8.7,27,46.4,35.7,55.8C184.2,443.4,192.3,456,189.8,467.2z M328.7,357.8
	c-2.3,11.1-2.3,51.1-2.3,51.1s-24.3,33.7-62.1,39.2c-37.7,5.5-56.5,1.6-56.5,1.6l-21.2-24.3c0,0,16.5-2.4,14.1-18.9
	c-2.4-16.5-50.2-39.3-58.9-59.7c-8.6-20.4-1.6-55,9.4-72.2c11-17.3,18-54.9,29-67.5c11-12.5,19.6-39.2,15.7-51
	c0,0,23.6,28.3,40,23.6c16.5-4.7,53.4-32.2,58.9-27.5c5.5,4.7,52.6,108.3,57.3,141.3c4.7,33-3.1,58.1-3.1,58.1
	S331,346.8,328.7,357.8z M449.1,431.8c-7.3,6.7-48.1,23.2-60.4,36.1C376.6,480.6,360.7,491,351,488c-9.8-3.1-18.3-16.5-14-36
	c4.2-19.5,7.9-40.8,7.3-53c-0.6-12.2-3.1-28.7,0-31.1c3-2.4,7.9-1.2,7.9-1.2s-2.4,23.1,11.6,29.3c14,6,34.1-2.4,40.3-8.6
	c6.1-6.1,10.4-15.2,10.4-15.2s6.1,3.1,5.5,12.8c-0.6,9.8,4.2,23.8,13.4,28.7C442.5,418.4,456.5,425.1,449.1,431.8z"/>
</svg>
